# xmcd CD database file
#
# Track frame offsets:
#	150
#	20242
#	48290
#
# Disc length: 911 seconds
#
# Revision: 0
# Processed by: cddbd v1.5PL3 Copyright (c) Steve Scherf et al.
# Submitted via: CDex 1.50beta9
#
DISCID=20038d03
DTITLE=本木雅弘 - 東へ西へ
DYEAR=1992
DGENRE=J-POP
TTITLE0=東へ西へ
TTITLE1=Ｉ’Ｍ　ＳＴＡＮＤＩＮＧ　ＢＹ　ＭＹＳＥＬＦ
TTITLE2=東へ西へ　カラオケ
EXTD=YEAR: 1992
EXTT0=
EXTT1=
EXTT2=
PLAYORDER=
